<?xml version="1.0" encoding="iso-8859-1"?>
<!-- Generator: Adobe Illustrator 19.0.0, SVG Export Plug-In . SVG Version: 6.00 Build 0)  -->
<svg version="1.1" id="Capa_1" xmlns="http://www.w3.org/2000/svg" xmlns:xlink="http://www.w3.org/1999/xlink" x="0px" y="0px"
	 viewBox="0 0 512.001 512.001" style="enable-background:new 0 0 512.001 512.001;" xml:space="preserve">
<path style="fill:#F3B573;" d="M210.328,499.539L15.462,304.672c-9.611-9.611-4.508-26.099,8.874-28.673l241.284-46.418
	c11.764-2.263,22.063,8.035,19.799,19.8l-46.418,241.285C236.426,504.048,219.938,509.15,210.328,499.539z"/>
<path style="fill:#F5A257;" d="M265.619,229.581l-16.713,3.215c4.781,3.704,7.547,9.906,6.262,16.584l-46.417,241.286
	c-0.377,1.962-1.061,3.74-1.971,5.326l3.548,3.547c9.611,9.611,26.099,4.508,28.673-8.874l46.418-241.285
	C287.682,237.616,277.383,227.318,265.619,229.581z"/>
<rect x="81.738" y="361.713" transform="matrix(-0.7071 -0.7071 0.7071 -0.7071 -27.3678 739.6484)" style="fill:#FFDEA9;" width="115.529" height="27.558"/>
<rect x="154.913" y="392.023" transform="matrix(-0.7071 -0.7071 0.7071 -0.7071 2.9601 812.8296)" style="fill:#FFBF7B;" width="29.819" height="27.558"/>
<polygon style="fill:#735458;" points="227.884,316.431 198.183,286.838 401.613,84.07 431.315,113.663 "/>
<path style="fill:#A66856;" d="M499.931,51.38l-42.36,52.65l-26.96,20.68l-20.94-20.93l-19.4-19.39l20.66-26.93l52.38-42.64
	c2.21-1.91,5.15-2.13,6.78-0.5l9.42,9.42l20.9,20.89C502.031,46.25,501.821,49.17,499.931,51.38z"/>
<path style="fill:#8F5040;" d="M499.931,51.38l-42.36,52.65l-26.96,20.68l-20.94-20.93l26.96-20.69l42.36-52.65
	c1.88-2.19,2.09-5.07,0.52-6.7l20.9,20.89C502.031,46.25,501.821,49.17,499.931,51.38z"/>
<circle style="fill:#5C4346;" cx="192.221" cy="322.78" r="34.448"/>
<path d="M242.637,471.732c-4.062-0.773-7.999,1.881-8.782,5.948l-2.229,11.583c-0.677,3.524-3.132,6.259-6.567,7.313
	c-3.401,1.046-6.929,0.175-9.434-2.331L20.755,299.372c-2.504-2.505-3.375-6.031-2.331-9.435c1.054-3.436,3.788-5.891,7.314-6.568
	l146.795-28.243c4.067-0.783,6.73-4.715,5.948-8.782c-0.783-4.067-4.712-6.73-8.782-5.948L22.907,268.639
	c-8.938,1.717-16.15,8.192-18.822,16.897c-2.663,8.673-0.339,18.039,6.064,24.443l194.87,194.873
	c4.65,4.65,10.861,7.149,17.237,7.149c2.403,0,4.831-0.354,7.205-1.084c8.706-2.672,15.18-9.884,16.896-18.821l2.228-11.581
	C249.368,476.447,246.705,472.515,242.637,471.732z"/>
<path d="M83.599,339.097c-2.929,2.93-2.929,7.678,0,10.608l81.694,81.695c1.464,1.464,3.384,2.196,5.303,2.196
	s3.839-0.732,5.303-2.196l19.486-19.487c2.929-2.93,2.929-7.678,0-10.608l-81.693-81.696c-1.406-1.406-3.314-2.196-5.303-2.196
	s-3.897,0.79-5.303,2.196L83.599,339.097z M179.476,406.609l-8.88,8.88l-71.087-71.088l8.88-8.881L179.476,406.609z"/>
<path d="M505.703,39.326L475.38,9.018c-4.422-4.421-11.658-4.396-16.883,0.043l-7.6,6.187L437.845,2.196
	c-2.929-2.928-7.678-2.928-10.606,0c-2.929,2.93-2.929,7.678,0,10.608l11.966,11.966l-27.764,22.602l-9.386-9.386
	c-2.929-2.928-7.678-2.929-10.606,0.001c-2.929,2.929-2.929,7.677,0,10.607l9.524,9.524l-16.656,21.713
	c-2.291,2.986-2.014,7.208,0.648,9.869l0.182,0.182l-135.586,135.15l-47.857,9.207c-4.067,0.783-6.73,4.715-5.948,8.782
	c0.69,3.589,3.833,6.084,7.356,6.084c0.47,0,0.947-0.044,1.425-0.136l26.033-5.008l-37.049,36.93
	c-11.175-0.346-22.463,3.724-30.974,12.233c-7.923,7.924-12.287,18.458-12.287,29.663s4.363,21.74,12.287,29.662
	c7.923,7.924,18.457,12.287,29.662,12.287s21.738-4.363,29.661-12.287v0.001c7.923-7.923,12.286-18.457,12.286-29.663
	c0-0.662-0.018-1.322-0.048-1.979l37.025-36.905l-31.122,161.776c-0.783,4.067,1.88,7.999,5.948,8.782
	c0.479,0.092,0.955,0.136,1.425,0.136c3.524,0,6.666-2.495,7.356-6.084l35.29-183.448l0,0c0.022-0.021,0,0,0.022-0.021
	c0.02-0.02-0.042,0.041-0.022,0.021l0.022-0.021c0.025-0.024-0.025,0.025,0,0c0.022-0.022-0.021,0.022,0,0l111.543-111.183
	c0.025-0.024,0,0,0.024-0.024c0.022-0.022,0,0,0.022-0.022l0,0c0.024-0.023-0.045,0.046-0.022,0.022c0.022-0.022,0,0,0.022-0.022
	l0,0c2.934-2.924,2.942-7.673,0.018-10.607c-2.924-2.933-7.673-2.941-10.606-0.017l-0.568,0.566l-19.039-19.039l24.31-24.232
	l19.043,19.035l-1.138,1.134c-2.934,2.924-2.942,7.673-0.018,10.607c1.465,1.47,3.389,2.205,5.312,2.205
	c1.915,0,3.831-0.729,5.294-2.189l1.163-1.159c1.441,1.384,3.311,2.095,5.193,2.095c1.602,0,3.21-0.511,4.563-1.55l26.956-20.684
	c0.474-0.364,0.903-0.783,1.278-1.249l10.367-12.885l10.158,10.159c1.464,1.464,3.384,2.196,5.303,2.196s3.839-0.732,5.303-2.196
	c2.929-2.93,2.929-7.678,0-10.608L483.227,84.09l22.478-27.936C510.097,50.938,510.103,43.726,505.703,39.326z M328.04,206.001
	l-19.067-19.011l20.58-20.514l19.061,19.017L328.04,206.001z M296.763,237.176l-19.038-19.039l20.624-20.557l19.067,19.011
	L296.763,237.176z M211.264,341.843L211.264,341.843c-5.09,5.091-11.857,7.894-19.055,7.894s-13.965-2.803-19.055-7.894
	c-5.09-5.089-7.893-11.857-7.893-19.055s2.803-13.965,7.893-19.055c5.254-5.254,12.153-7.88,19.055-7.88
	c6.9,0,13.802,2.627,19.055,7.879c3.408,3.409,5.784,7.571,6.987,12.109c0.039,0.167,0.08,0.335,0.131,0.5
	c0.51,2.085,0.775,4.246,0.775,6.447C219.156,329.986,216.354,336.754,211.264,341.843z M221.87,293.125
	c-3.387-3.387-7.219-6.061-11.304-8.045l56.535-56.352c0.021-0.021-0.021,0.021,0,0l0,0l19.038,19.039L229.723,304
	C227.731,300.03,225.102,296.357,221.87,293.125z M379.86,154.348l-20.623,20.556l-19.061-19.017l20.644-20.578L379.86,154.348z
	 M467.415,79.818c-0.053,0.063-0.103,0.127-0.154,0.191l-14.98,18.619l-21.025,16.133l-31.034-31.02l16.121-21.016l38.763-31.559
	c0.007-0.005,0.013-0.011,0.02-0.016l11.672-9.503l26.284,26.272L467.415,79.818z"/>
<g>
</g>
<g>
</g>
<g>
</g>
<g>
</g>
<g>
</g>
<g>
</g>
<g>
</g>
<g>
</g>
<g>
</g>
<g>
</g>
<g>
</g>
<g>
</g>
<g>
</g>
<g>
</g>
<g>
</g>
</svg>
