<?xml version="1.0" encoding="iso-8859-1"?>
<!-- Generator: Adobe Illustrator 19.0.0, SVG Export Plug-In . SVG Version: 6.00 Build 0)  -->
<svg version="1.1" id="Capa_1" xmlns="http://www.w3.org/2000/svg" xmlns:xlink="http://www.w3.org/1999/xlink" x="0px" y="0px"
	 viewBox="0 0 511.999 511.999" style="enable-background:new 0 0 511.999 511.999;" xml:space="preserve">
<path style="fill:#A66856;" d="M217.902,475.004c-49.055,49.079-112.15,32.355-161.205-16.724S-9.075,346.076,39.981,296.997
	c32.859-32.875,79.514-43.73,121.478-32.561c20.157,5.365,41.644-0.102,56.393-14.858L454.053,13.262l47.446,47.468L265.297,297.047
	c-14.749,14.756-20.213,36.253-14.851,56.421C261.611,395.451,250.761,442.129,217.902,475.004z"/>
<path style="fill:#8F5040;" d="M501.499,60.73l-75.97,76l-160.23,160.32c-14.75,14.75-20.21,36.25-14.85,56.42
	c11.16,41.98,0.31,88.66-32.55,121.53c-30.39,30.42-66.18,35.55-100.68,23.39c24.77,1.15,49.23-7.67,70.93-29.39
	c32.86-32.87,43.71-79.55,32.55-121.53c-5.36-20.17,0.1-41.67,14.85-56.42l172.07-172.24l75.94-76.03L501.499,60.73z"/>
<polygon style="fill:#FF803C;" points="501.499,60.73 425.529,136.73 407.619,118.81 378.089,89.26 454.049,13.26 483.559,42.78 "/>
<polygon style="fill:#FFDEA9;" points="165.15,417.586 97.371,349.774 119.399,327.735 187.179,395.547 "/>
<polygon style="fill:#FFBF7B;" points="165.15,417.586 144.753,397.155 166.785,375.12 187.182,395.551 "/>
<polygon style="fill:#F76328;" points="501.499,60.73 425.529,136.73 407.619,118.81 483.559,42.78 "/>
<g>
	<path style="fill:#735458;" d="M422.211,45.119l-11.019-11.025c-6.081-6.084-6.081-15.945,0-22.028l0,0
		c6.085-6.088,15.954-6.088,22.039,0L444.24,23.08L422.211,45.119z"/>
	<path style="fill:#735458;" d="M386.227,81.121l-11.019-11.025c-6.081-6.084-6.081-15.945,0-22.028l0,0
		c6.085-6.088,15.954-6.088,22.039,0l11.009,11.014L386.227,81.121z"/>
</g>
<path d="M196.046,483.33c-20.179,13.266-42.64,16.935-66.759,10.91c-22.736-5.68-46.004-19.94-67.29-41.237
	c-24.331-24.344-39.213-50.779-43.036-76.449c-4.121-27.664,4.734-52.641,26.321-74.238c22.319-22.332,52.003-34.613,83.636-34.613
	c0.157,0,0.32,0.001,0.474,0.001c4.129,0,7.484-3.34,7.5-7.473c0.015-4.142-3.331-7.512-7.473-7.528
	c-0.168-0.001-0.334-0.001-0.503-0.001c-35.638,0-69.091,13.843-94.244,39.01c-24.775,24.786-35.338,54.89-30.547,87.051
	c4.301,28.873,20.645,58.211,47.264,84.843c23.209,23.221,48.889,38.847,74.263,45.186c8.579,2.143,17.083,3.207,25.432,3.207
	c18.859,0,36.921-5.433,53.202-16.135c3.461-2.276,4.423-6.926,2.147-10.388C204.157,482.016,199.508,481.056,196.046,483.33z"/>
<path d="M506.804,55.432L459.357,7.96c-1.407-1.407-3.315-2.198-5.305-2.198s-3.898,0.791-5.305,2.198l-4.509,4.511l-5.704-5.707
	C434.175,2.402,428.378,0,422.21,0c-6.167,0-11.964,2.402-16.323,6.764c-8.993,8.997-8.994,23.637,0,32.635l5.72,5.723l-3.352,3.354
	l-5.704-5.708c-4.36-4.363-10.157-6.764-16.324-6.764s-11.964,2.401-16.324,6.764c-8.993,8.998-8.993,23.637,0,32.635l5.72,5.723
	l0,0l-36.253,36.272l-9.096-9.103c-2.928-2.931-7.676-2.931-10.607-0.004c-2.93,2.929-2.932,7.677-0.004,10.608l9.102,9.109
	l-18.374,18.384l-9.098-9.105c-2.928-2.931-7.676-2.931-10.607-0.004c-2.93,2.929-2.932,7.677-0.004,10.608l9.104,9.111
	l-18.36,18.37l-9.106-9.106c-2.929-2.928-7.678-2.928-10.607,0c-2.929,2.93-2.929,7.678,0,10.608l9.108,9.108l-18.372,18.382
	l-9.098-9.104c-2.928-2.931-7.677-2.932-10.607-0.003c-2.93,2.928-2.932,7.676-0.004,10.607l9.104,9.11l-29.301,29.317
	c-12.66,12.666-31.496,17.615-49.16,12.912c-4.004-1.064-8.112,1.316-9.177,5.32c-1.065,4.002,1.316,8.112,5.318,9.177
	c5.681,1.512,11.455,2.248,17.182,2.248c17.278,0,34.106-6.706,46.445-19.053l14.804-14.812l36.846,36.858l-14.813,14.821
	c-16.428,16.436-22.863,40.827-16.794,63.653c10.092,37.956,0.893,78.278-24.608,107.858c-2.705,3.138-2.354,7.873,0.784,10.579
	c1.417,1.222,3.159,1.819,4.894,1.819c2.106,0,4.201-0.883,5.684-2.603c28.738-33.337,39.109-78.761,27.743-121.509
	c-4.7-17.675,0.246-36.524,12.907-49.193l192.581-192.682l0,0c2.928-2.93,2.927-7.678-0.002-10.607
	c-2.931-2.929-7.68-2.928-10.607,0.003l-27.037,27.051L388.691,89.27l0,0c0.001-0.001-0.001,0.001,0,0l0,0c0.001,0-0.001,0,0,0l0,0
	l0,0l65.363-65.397l0,0l36.842,36.861l-15.414,15.423c-2.928,2.93-2.927,7.678,0.003,10.607c2.929,2.928,7.678,2.927,10.607-0.003
	l20.714-20.725C509.731,63.107,509.731,58.361,506.804,55.432z M416.496,17.369c1.526-1.527,3.555-2.368,5.714-2.368
	s4.189,0.841,5.715,2.368l5.709,5.712l-11.424,11.43l-5.715-5.717C413.347,25.644,413.347,20.519,416.496,17.369z M380.511,64.798
	c-3.148-3.151-3.148-8.276,0-11.426c1.526-1.526,3.556-2.367,5.715-2.367s4.189,0.841,5.715,2.367l5.709,5.713l-11.424,11.43
	L380.511,64.798z M372.325,179.366l-36.846-36.858l18.882-18.892l36.846,36.858L372.325,179.366z M343.352,208.354l-36.846-36.858
	l18.368-18.378l36.846,36.858L343.352,208.354z M314.38,237.342l-36.846-36.858l18.368-18.378c0.002-0.002-0.005,0.005-0.002,0.002
	c0.002-0.002,0,0,0.002-0.002l0,0l36.846,36.858L314.38,237.342z M248.562,229.472l18.368-18.377l36.846,36.858l-18.368,18.378
	L248.562,229.472z M414.928,136.741l-13.117,13.124l-36.846-36.858l13.12-13.128L414.928,136.741z"/>
<path d="M119.396,320.251c-1.99,0-3.898,0.791-5.305,2.198l-22.029,22.04c-2.927,2.929-2.927,7.675,0,10.604l67.78,67.816
	c1.407,1.407,3.315,2.198,5.305,2.198s3.898-0.791,5.305-2.198l22.029-22.04c2.927-2.929,2.927-7.675,0-10.604l-67.78-67.816
	C123.294,321.043,121.386,320.251,119.396,320.251z M165.147,406.998l-57.176-57.206l11.424-11.43l57.176,57.206L165.147,406.998z"
	/>
<circle cx="458.269" cy="56.821" r="7.5"/>
<circle cx="422.309" cy="92.8" r="7.5"/>
<g>
</g>
<g>
</g>
<g>
</g>
<g>
</g>
<g>
</g>
<g>
</g>
<g>
</g>
<g>
</g>
<g>
</g>
<g>
</g>
<g>
</g>
<g>
</g>
<g>
</g>
<g>
</g>
<g>
</g>
</svg>
